<svg xmlns="http://www.w3.org/2000/svg" viewBox="0 0 510.36 144.78"><defs><style>.cls-1{fill:#000;}</style></defs><title>insta-logo</title><g id="Layer_2" data-name="Layer 2"><g id="Layer_1-2" data-name="Layer 1"><path class="cls-1" d="M26.27.5C15.82,4.88,4.34,17.23.71,32.74-3.88,52.38,15.23,60.69,16.8,58c1.85-3.2-3.43-4.28-4.51-14.48C10.89,30.33,17,15.62,24.71,9.16c1.43-1.2,1.36.47,1.36,3.56,0,5.52-.3,55.08-.3,65.43,0,14-.58,18.42-1.62,22.78s-2.74,7.42-1.46,8.57c1.43,1.29,7.55-1.78,11.09-6.72,4.24-5.92,5.73-13,6-20.77.32-9.31.31-24.09.32-32.52,0-7.73.13-30.37-.14-44-.07-3.34-9.32-6.84-13.69-5"/><path class="cls-1" d="M397.21,66a42.76,42.76,0,0,1-3.95,17c-3.87,7.77-11.9,10.18-15.31-1-1.86-6.09-1.94-16.25-.61-24.74,1.36-8.65,5.16-15.19,11.44-14.6s9.1,8.57,8.42,23.35ZM292.66,111.15c-.08,12.09-2,22.69-6.07,25.77-5.79,4.37-13.57,1.09-12-7.73,1.43-7.81,8.17-15.78,18-25.52,0,0,0,2.22,0,7.48Zm-1.58-45.22c-.35,6.63-2.07,13.29-3.95,17-3.87,7.77-12,10.19-15.31-1-2.29-7.64-1.74-17.53-.61-23.76,1.47-8.08,5-15.58,11.44-15.58,6.23,0,9.3,6.83,8.42,23.28Zm-60.56-.1c-.38,7-1.75,12.89-3.95,17.15-4,7.71-11.84,10.16-15.31-1-2.5-8-1.65-19-.61-24.92,1.54-8.78,5.41-15,11.44-14.42,6.2.61,9.21,8.57,8.42,23.18ZM508.07,74c-1.52,0-2.21,1.56-2.78,4.19-2,9.14-4.07,11.21-6.76,11.21-3,0-5.71-4.53-6.4-13.59-.55-7.13-.46-20.24.24-33.29.14-2.68-.6-5.33-7.79-7.95-3.09-1.12-7.59-2.78-9.83,2.63-6.33,15.27-8.8,27.4-9.39,32.32,0,.26-.34.31-.4-.29a251,251,0,0,1-1.3-26.18c0-2.94-.64-5.44-3.89-7.49-2.1-1.33-8.5-3.68-10.8-.88-2,2.29-4.3,8.44-6.7,15.74-2,5.93-3.31,9.94-3.31,9.94s0-16,0-22.07a3.11,3.11,0,0,0-2-3.19,42.68,42.68,0,0,0-8.11-1.65c-2.2,0-2.74,1.23-2.74,3,0,.24-.35,21.06-.35,35.63,0,.63,0,1.32,0,2.06C424.57,80.88,420.63,90,416.34,90S410,86.17,410,68.81c0-10.13.3-14.53.45-21.86.09-4.22.25-7.46.24-8.2,0-2.26-3.93-3.39-5.75-3.81a17,17,0,0,0-4.64-.52,2.9,2.9,0,0,0-3,2.83c0,.85,0,2.46,0,2.46A16.77,16.77,0,0,0,389,33c-6.5-1.93-13.28-.22-18.4,6.94-4.07,5.69-6.52,12.13-7.48,21.39a63.47,63.47,0,0,0,.78,19.43c-1.51,6.55-4.33,9.23-7.41,9.23-4.47,0-7.71-7.3-7.33-19.91.25-8.3,1.91-14.12,3.72-22.55.77-3.59.15-5.47-1.43-7.27s-4.53-2.5-9-1.46c-3.16.74-7.67,1.54-11.8,2.15a23.89,23.89,0,0,0,.45-2.75c1.07-9.19-8.91-8.44-12.1-5.51a11.31,11.31,0,0,0-3.69,7.54,8.89,8.89,0,0,0,4,8.68A89.72,89.72,0,0,1,310,72.37a101.39,101.39,0,0,1-5.89,9.24c0-1.07,0-2.15,0-3.21,0-15.19.15-27.14.24-31.45s.26-7.37.25-8.11c0-1.65-1-2.27-3-3.06a21.22,21.22,0,0,0-6-1.35c-2.74-.21-4.39,1.24-4.35,3,0,.32,0,2.32,0,2.32a16.77,16.77,0,0,0-8.3-6.72c-6.5-1.93-13.28-.22-18.4,6.94-4.07,5.69-6.73,13.67-7.48,21.32a65.35,65.35,0,0,0,.38,18.28c-1,5.11-4,10.45-7.36,10.45-4.3,0-6.74-3.8-6.74-21.16,0-10.13.3-14.53.45-21.86.09-4.22.25-7.46.24-8.2,0-2.26-3.93-3.39-5.75-3.81a16.66,16.66,0,0,0-4.8-.51,3.08,3.08,0,0,0-2.83,2.72v2.56a16.77,16.77,0,0,0-8.3-6.72c-6.5-1.93-13.24-.19-18.4,6.94-3.36,4.65-6.08,9.8-7.48,21.21a71.48,71.48,0,0,0-.56,9.27c-1.34,8.2-7.26,17.64-12.1,17.64-2.83,0-5.53-5.5-5.53-17.21,0-15.6,1-37.81,1.13-40l7.3-.12c3.05,0,5.81,0,9.88-.17,2-.1,4-7.42,1.9-8.33-1-.41-7.69-.77-10.36-.83-2.25-.05-8.5-.51-8.5-.51s.56-14.74.69-16.3c.11-1.3-1.57-2-2.53-2.37a34.7,34.7,0,0,0-6.92-2c-3.43-.71-5,0-5.29,2.88-.46,4.39-.69,17.27-.69,17.27-2.52,0-11.12-.49-13.64-.49-2.34,0-4.87,10.06-1.63,10.19,3.72.14,10.21.27,14.51.4,0,0-.19,22.58-.19,29.55,0,.74,0,1.46,0,2.15a34.08,34.08,0,0,1-10.7,19c1.79-8.16-1.87-14.29-8.45-19.48-2.43-1.91-7.22-5.53-12.58-9.5A32.35,32.35,0,0,0,138.06,43c2-4.36,2-9.35-2.75-10.45-7.91-1.82-14.44,4-16.38,10.19-1.51,4.81-.7,8.37,2.25,12.08.22.27.45.55.69.83-1.79,3.44-4.24,8.08-6.32,11.67-5.77,10-10.12,17.87-13.42,17.87-2.63,0-2.6-8-2.6-15.52,0-6.47.48-16.19.86-26.26.13-3.33-1.54-5.23-4.33-6.94-1.7-1-5.32-3.1-7.41-3.1-3.14,0-12.19.43-20.74,25.17-1.08,3.12-3.2,8.8-3.2,8.8l.18-29.75a2.07,2.07,0,0,0-1.22-1.83A21.12,21.12,0,0,0,55,33.41q-2.45,0-2.44,2.27l-.3,46.55a68.42,68.42,0,0,0,.44,9.47,9.94,9.94,0,0,0,1.61,4.15,4.62,4.62,0,0,0,2.84,1.81c1.24.26,8,1.13,8.38-1.47.42-3.11.44-6.47,4-19,5.55-19.51,12.78-29,16.18-32.42.59-.59,1.27-.63,1.24.34-.15,4.28-.66,15-1,24.05C85,93.47,89.4,98,95.72,98c4.83,0,11.65-4.8,19-17,4.55-7.58,9-15,12.15-20.36,2.21,2,4.7,4.25,7.18,6.61,5.77,5.48,7.66,10.68,6.41,15.62-1,3.77-4.58,7.66-11,3.88-1.88-1.1-2.68-2-4.57-3.2a3.24,3.24,0,0,0-3.49-.17,12.43,12.43,0,0,0-4.58,7c-.77,2.79,2,4.26,4.92,5.55a38.16,38.16,0,0,0,11.26,2.23c13.31.44,24-6.42,31.38-24.14,1.33,15.3,7,24,16.8,24,6.57,0,13.15-8.49,16-16.84A29.61,29.61,0,0,0,200.77,90c7.57,12,22.25,9.41,29.62-.77A19,19,0,0,0,233,85c1.08,9.61,8.82,13,13.25,13,5,0,10.09-2.35,13.68-10.44A24.71,24.71,0,0,0,261.34,90c7.57,12,22.25,9.41,29.62-.77.35-.48.65-.91.91-1.3l.22,6.31-6.79,6.23c-11.38,10.43-20,18.34-20.66,27.55-.81,11.75,8.71,16.11,15.93,16.68,7.65.61,14.21-3.62,18.23-9.54,3.54-5.21,5.86-16.42,5.69-27.49-.07-4.43-.18-10.07-.27-16.11a129.15,129.15,0,0,0,12.64-17.37A131.42,131.42,0,0,0,328.7,48.88s4.21,0,8.69-.26c1.44-.09,1.85.2,1.58,1.25-.32,1.27-5.67,21.9-.79,35.65C341.53,94.93,349.06,98,353.53,98c5.23,0,10.23-3.95,12.91-9.81a20.69,20.69,0,0,0,1,1.87c7.57,12,22.2,9.39,29.62-.77A30.36,30.36,0,0,0,399.72,85c1.59,9.95,9.33,13,13.76,13,4.62,0,9-1.89,12.55-10.3.15,3.7.38,6.73.75,7.69.23.58,1.54,1.32,2.49,1.67a19.08,19.08,0,0,0,10.12.5c1.1-.22,2-1.11,2.08-3.4.31-6,.12-16.09,1.94-23.59,3.06-12.58,5.91-17.46,7.26-19.88.76-1.35,1.61-1.58,1.64-.14.06,2.9.21,11.41,1.39,22.85.87,8.41,2,13.39,2.92,15,2.55,4.5,5.69,4.71,8.25,4.71,1.63,0,5-.45,4.73-3.31-.15-1.4.11-10,3.12-22.42a109.23,109.23,0,0,1,6.43-18.08c.44-1,.64-.21.63-.06C479.56,54.76,479,73,481.27,83c3.08,13.51,12,15,15.09,15,6.63,0,12-5,13.87-18.3.44-3.19-.21-5.66-2.16-5.66Z"/></g></g></svg>